<svg xmlns="http://www.w3.org/2000/svg" width="1560" height="1560" viewBox="0 0 1560 1560" font-family="Nunito, Segoe UI, Arial, sans-serif" xmlns:c2pa="http://c2pa.org/manifest"><metadata><c2pa:manifest>AAAWgmp1bWIAAAAeanVtZGMycGEAEQAQgAAAqgA4m3EDYzJwYQAAABZcanVtYgAAAEdqdW1kYzJtYQARABCAAACqADibcQN1cm46YzJwYTphNWFiMzI3YS0yYThjLTQ4ZDktODcwOS1iNzQ3N2VjNjE1MDQAAAADl2p1bWIAAAApanVtZGMyYXMAEQAQgAAAqgA4m3EDYzJwYS5hc3NlcnRpb25zAAAAALxqdW1iAAAARGp1bWRjYm9yABEAEIAAAKoAOJtxE2MycGEuaW5ncmVkaWVudC52MwAAAAAYYzJzaM81ZzrtEPzlUutRZNZfCQ0AAABwY2JvcqNpZGM6Zm9ybWF0bWltYWdlL3N2Zyt4bWxqaW5zdGFuY2VJRHgseG1wOmlpZDpiODY0OWE0Yi1lY2Y1LTQyOWUtOWZhZS1hNTM2ZTRjYmFhZTBscmVsYXRpb25zaGlwaHBhcmVudE9mAAAB4mp1bWIAAABBanVtZGNib3IAEQAQgAAAqgA4m3ETYzJwYS5hY3Rpb25zLnYyAAAAABhjMnNog1imnOS7tVjBomXYueGXLAAAAZljYm9yomdhY3Rpb25zgqJmYWN0aW9ua2MycGEub3BlbmVkanBhcmFtZXRlcnOha2luZ3JlZGllbnRzgaJjdXJseC1zZWxmI2p1bWJmPWMycGEuYXNzZXJ0aW9ucy9jMnBhLmluZ3JlZGllbnQudjNkaGFzaFggUfaQadWPeDoy7hDDI0jizF9sBpwb9J/6yZ+Vicz5EzOkZmFjdGlvbngdY29tLmFudGhyb3BpYy5jbGF1ZGUucHJvdmlkZWRqcGFyYW1ldGVyc6F4H2NvbS5hbnRocm9waWMub3JpZ2luLWNvbmZpZGVuY2VndW5rbm93bmtkZXNjcmlwdGlvbnhmQ2xhdWRlIHByb3ZpZGVkIHRoaXMgZmlsZSBhdCB0aGUgcmVxdWVzdCBvZiBhIHVzZXIgYW5kIG1heSBoYXZlIGNyZWF0ZWQgb3IgbW9kaWZpZWQgdGhlIGZpbGUgY29udGVudHMubXNvZnR3YXJlQWdlbnShZG5hbWVmQ2xhdWRlcmFsbEFjdGlvbnNJbmNsdWRlZPUAAADIanVtYgAAAEBqdW1kY2JvcgARABCAAACqADibcRNjMnBhLmhhc2guZGF0YQAAAAAYYzJzaEdOBOH0Ef2MPQpL8KrvB64AAACAY2JvcqVjYWxnZnNoYTI1NmNwYWRNAAAAAAAAAAAAAAAAAGRoYXNoWCDfp24xoY87G23o0Fi7IHD3NYqfB+dnr5iZCppzcniiQWRuYW1lbmp1bWJmIG1hbmlmZXN0amV4Y2x1c2lvbnOBomVzdGFydBjMZmxlbmd0aBkeBAAAAj5qdW1iAAAAJ2p1bWRjMmNsABEAEIAAAKoAOJtxA2MycGEuY2xhaW0udjIAAAACD2Nib3KlY2FsZ2ZzaGEyNTZpc2lnbmF0dXJleE1zZWxmI2p1bWJmPS9jMnBhL3VybjpjMnBhOmE1YWIzMjdhLTJhOGMtNDhkOS04NzA5LWI3NDc3ZWM2MTUwNC9jMnBhLnNpZ25hdHVyZWppbnN0YW5jZUlEeCx4bXA6aWlkOjJhNmMyMmFhLTY0MjQtNDNlMC1iZDc0LWMzYWRmZTNlMjMwNXJjcmVhdGVkX2Fzc2VydGlvbnODomN1cmx4LXNlbGYjanVtYmY9YzJwYS5hc3NlcnRpb25zL2MycGEuaW5ncmVkaWVudC52M2RoYXNoWCBR9pBp1Y94OjLuEMMjSOLMX2wGnBv0n/rJn5WJzPkTM6JjdXJseCpzZWxmI2p1bWJmPWMycGEuYXNzZXJ0aW9ucy9jMnBhLmFjdGlvbnMudjJkaGFzaFgggbOSu/6nYlvtsyVWNA61SUsdTSmVMvvcFoEfIB7FfMmiY3VybHgpc2VsZiNqdW1iZj1jMnBhLmFzc2VydGlvbnMvYzJwYS5oYXNoLmRhdGFkaGFzaFggh8y/BAGT6j4pY8l6JCLi8pCdTobTGsa5YdOXdSLjyPd0Y2xhaW1fZ2VuZXJhdG9yX2luZm+jZG5hbWVvQW50aHJvcGljIEZpbGVzZ3ZlcnNpb25lMS4wLjBrc3BlY1ZlcnNpb25lMi40LjAAABA4anVtYgAAAChqdW1kYzJjcwARABCAAACqADibcQNjMnBhLnNpZ25hdHVyZQAAABAIY2JvctKEWQISogEmGCFZAgowggIGMIIBjaADAgECAhRA5aAK7sI50L64g/oGQgU9Z1UTADAKBggqhkjOPQQDAzBJMRcwFQYDVQQKEw5BbnRocm9waWMsIFBCQzEuMCwGA1UEAxMlQW50aHJvcGljIENvbnRlbnQgQ3JlZGVudGlhbHMgUm9vdCBDQTAeFw0yNjA4MDcxODQzNTZaFw0yODA4MDYxOTQzNTZaMEQxFzAVBgNVBAoTDkFudGhyb3BpYywgUEJDMSkwJwYDVQQDEyBBbnRocm9waWMgQ2xhdWRlIENvbnRlbnQgU2lnbmluZzBZMBMGByqGSM49AgEGCCqGSM49AwEHA0IABJh6CmvLUBgFFNU0vUKlOVtE6djd17L5SuwX0LemFisBM3dkd/3cyjxFA3Qo5S46fX0/ihY0VZ7mfb9KF703t5OjWDBWMA4GA1UdDwEB/wQEAwIHgDAVBgNVHSUEDjAMBgorBgEEAYPoXgIBMAwGA1UdEwEB/wQCMAAwHwYDVR0jBBgwFoAUzlHiBIFOZFsj+OPEz5o+nMHXXMIwCgYIKoZIzj0EAwMDZwAwZAIwMXMdFJ4BetLLVY7ORuE9noqbbAZOZn/aArXyTwFAZfKrPzxF2vPoJNf1+UCdg1XGAjBwX1zd9WGqYkqmL5SFqw1QySjr1zJfpJM9+1rdDwSPLMOPOjKuiXjoU/pUUeG9RwmhY3BhZFkNngAAAAAAAAAAAAAAAAAAAAAAAAAAAAAAAAAAAAAAAAAAAAAAAAAAAAAAAAAAAAAAAAAAAAAAAAAAAAAAAAAAAAAAAAAAAAAAAAAAAAAAAAAAAAAAAAAAAAAAAAAAAAAAAAAAAAAAAAAAAAAAAAAAAAAAAAAAAAAAAAAAAAAAAAAAAAAAAAAAAAAAAAAAAAAAAAAAAAAAAAAAAAAAAAAAAAAAAAAAAAAAAAAAAAAAAAAAAAAAAAAAAAAAAAAAAAAAAAAAAAAAAAAAAAAAAAAAAAAAAAAAAAAAAAAAAAAAAAAAAAAAAAAAAAAAAAAAAAAAAAAAAAAAAAAAAAAAAAAAAAAAAAAAAAAAAAAAAAAAAAAAAAAAAAAAAAAAAAAAAAAAAAAAAAAAAAAAAAAAAAAAAAAAAAAAAAAAAAAAAAAAAAAAAAAAAAAAAAAAAAAAAAAAAAAAAAAAAAAAAAAAAAAAAAAAAAAAAAAAAAAAAAAAAAAAAAAAAAAAAAAAAAAAAAAAAAAAAAAAAAAAAAAAAAAAAAAAAAAAAAAAAAAAAAAAAAAAAAAAAAAAAAAAAAAAAAAAAAAAAAAAAAAAAAAAAAAAAAAAAAAAAAAAAAAAAAAAAAAAAAAAAAAAAAAAAAAAAAAAAAAAAAAAAAAAAAAAAAAAAAAAAAAAAAAAAAAAAAAAAAAAAAAAAAAAAAAAAAAAAAAAAAAAAAAAAAAAAAAAAAAAAAAAAAAAAAAAAAAAAAAAAAAAAAAAAAAAAAAAAAAAAAAAAAAAAAAAAAAAAAAAAAAAAAAAAAAAAAAAAAAAAAAAAAAAAAAAAAAAAAAAAAAAAAAAAAAAAAAAAAAAAAAAAAAAAAAAAAAAAAAAAAAAAAAAAAAAAAAAAAAAAAAAAAAAAAAAAAAAAAAAAAAAAAAAAAAAAAAAAAAAAAAAAAAAAAAAAAAAAAAAAAAAAAAAAAAAAAAAAAAAAAAAAAAAAAAAAAAAAAAAAAAAAAAAAAAAAAAAAAAAAAAAAAAAAAAAAAAAAAAAAAAAAAAAAAAAAAAAAAAAAAAAAAAAAAAAAAAAAAAAAAAAAAAAAAAAAAAAAAAAAAAAAAAAAAAAAAAAAAAAAAAAAAAAAAAAAAAAAAAAAAAAAAAAAAAAAAAAAAAAAAAAAAAAAAAAAAAAAAAAAAAAAAAAAAAAAAAAAAAAAAAAAAAAAAAAAAAAAAAAAAAAAAAAAAAAAAAAAAAAAAAAAAAAAAAAAAAAAAAAAAAAAAAAAAAAAAAAAAAAAAAAAAAAAAAAAAAAAAAAAAAAAAAAAAAAAAAAAAAAAAAAAAAAAAAAAAAAAAAAAAAAAAAAAAAAAAAAAAAAAAAAAAAAAAAAAAAAAAAAAAAAAAAAAAAAAAAAAAAAAAAAAAAAAAAAAAAAAAAAAAAAAAAAAAAAAAAAAAAAAAAAAAAAAAAAAAAAAAAAAAAAAAAAAAAAAAAAAAAAAAAAAAAAAAAAAAAAAAAAAAAAAAAAAAAAAAAAAAAAAAAAAAAAAAAAAAAAAAAAAAAAAAAAAAAAAAAAAAAAAAAAAAAAAAAAAAAAAAAAAAAAAAAAAAAAAAAAAAAAAAAAAAAAAAAAAAAAAAAAAAAAAAAAAAAAAAAAAAAAAAAAAAAAAAAAAAAAAAAAAAAAAAAAAAAAAAAAAAAAAAAAAAAAAAAAAAAAAAAAAAAAAAAAAAAAAAAAAAAAAAAAAAAAAAAAAAAAAAAAAAAAAAAAAAAAAAAAAAAAAAAAAAAAAAAAAAAAAAAAAAAAAAAAAAAAAAAAAAAAAAAAAAAAAAAAAAAAAAAAAAAAAAAAAAAAAAAAAAAAAAAAAAAAAAAAAAAAAAAAAAAAAAAAAAAAAAAAAAAAAAAAAAAAAAAAAAAAAAAAAAAAAAAAAAAAAAAAAAAAAAAAAAAAAAAAAAAAAAAAAAAAAAAAAAAAAAAAAAAAAAAAAAAAAAAAAAAAAAAAAAAAAAAAAAAAAAAAAAAAAAAAAAAAAAAAAAAAAAAAAAAAAAAAAAAAAAAAAAAAAAAAAAAAAAAAAAAAAAAAAAAAAAAAAAAAAAAAAAAAAAAAAAAAAAAAAAAAAAAAAAAAAAAAAAAAAAAAAAAAAAAAAAAAAAAAAAAAAAAAAAAAAAAAAAAAAAAAAAAAAAAAAAAAAAAAAAAAAAAAAAAAAAAAAAAAAAAAAAAAAAAAAAAAAAAAAAAAAAAAAAAAAAAAAAAAAAAAAAAAAAAAAAAAAAAAAAAAAAAAAAAAAAAAAAAAAAAAAAAAAAAAAAAAAAAAAAAAAAAAAAAAAAAAAAAAAAAAAAAAAAAAAAAAAAAAAAAAAAAAAAAAAAAAAAAAAAAAAAAAAAAAAAAAAAAAAAAAAAAAAAAAAAAAAAAAAAAAAAAAAAAAAAAAAAAAAAAAAAAAAAAAAAAAAAAAAAAAAAAAAAAAAAAAAAAAAAAAAAAAAAAAAAAAAAAAAAAAAAAAAAAAAAAAAAAAAAAAAAAAAAAAAAAAAAAAAAAAAAAAAAAAAAAAAAAAAAAAAAAAAAAAAAAAAAAAAAAAAAAAAAAAAAAAAAAAAAAAAAAAAAAAAAAAAAAAAAAAAAAAAAAAAAAAAAAAAAAAAAAAAAAAAAAAAAAAAAAAAAAAAAAAAAAAAAAAAAAAAAAAAAAAAAAAAAAAAAAAAAAAAAAAAAAAAAAAAAAAAAAAAAAAAAAAAAAAAAAAAAAAAAAAAAAAAAAAAAAAAAAAAAAAAAAAAAAAAAAAAAAAAAAAAAAAAAAAAAAAAAAAAAAAAAAAAAAAAAAAAAAAAAAAAAAAAAAAAAAAAAAAAAAAAAAAAAAAAAAAAAAAAAAAAAAAAAAAAAAAAAAAAAAAAAAAAAAAAAAAAAAAAAAAAAAAAAAAAAAAAAAAAAAAAAAAAAAAAAAAAAAAAAAAAAAAAAAAAAAAAAAAAAAAAAAAAAAAAAAAAAAAAAAAAAAAAAAAAAAAAAAAAAAAAAAAAAAAAAAAAAAAAAAAAAAAAAAAAAAAAAAAAAAAAAAAAAAAAAAAAAAAAAAAAAAAAAAAAAAAAAAAAAAAAAAAAAAAAAAAAAAAAAAAAAAAAAAAAAAAAAAAAAAAAAAAAAAAAAAAAAAAAAAAAAAAAAAAAAAAAAAAAAAAAAAAAAAAAAAAAAAAAAAAAAAAAAAAAAAAAAAAAAAAAAAAAAAAAAAAAAAAAAAAAAAAAAAAAAAAAAAAAAAAAAAAAAAAAAAAAAAAAAAAAAAAAAAAAAAAAAAAAAAAAAAAAAAAAAAAAAAAAAAAAAAAAAAAAAAAAAAAAAAAAAAAAAAAAAAAAAAAAAAAAAAAAAAAAAAAAAAAAAAAAAAAAAAAAAAAAAAAAAAAAAAAAAAAAAAAAAAAAAAAAAAAAAAAAAAAAAAAAAAAAAAAAAAAAAAAAAAAAAAAAAAAAAAAAAAAAAAAAAAAAAAAAAAAAAAAAAAAAAAAAAAAAAAAAAAAAAAAAAAAAAAAAAAAAAAAAAAAAAAAAAAAAAAAAAAAAAAAAAAAAAAAAAAAAAAAAAAAAAAAAAAAAAAAAAAAAAAAAAAAAAAAAAAAAAAAAAAAAAAAAAAAAAAAAAAAAAAAAAAAAAAAAAAAAAAAAAAAAAAAAAAAAAAAAAAAAAAAAAAAAAAAAAAAAAAAAAAAAAAAAAAAAAAAAAAAAAAAAAAAAAAAAAAAAAAAAAAAAAAAAAAAAAAAAAAAAAAAAAAAAAAAAAAAAAAAAAAAAAAAAAAAAAAAAAAAAAAAAAAAAAAAAAAAAAAAAAAAAAAAAAAAAAAAAAAAAAAAAAAAAAAAAAAAAAAAAAAAAAAAAAAAAAAAAAAAAAAAAAAAAAAAAAAAAAAAAAAAAAAAAAAAAAAAAAAAAAAAAAAAAAAAAAAAAAAAAAAAAAAAAAAAAAAAAAAAAAAAAAAAAAAAAAAAAAAAAAAAAAAAAAAAAAAAAAAAAAAAAAAAAAAAAAAAAAAAAAAAAAAAAAAAAAAAAAAAAAAAAAAAAAAAAAAAAAAAAAAAAAAAAAAAAAAAAAAAAAAAAAAAAAAAAAAAAAAAAAAAAAAAAAAAAAAAAAAAAAAAAAAAAAAAAAAAAAAAAAAAAAAAAAAAAAAAAAAAAAAAAAAAAAAAAAAAAAAAAAAAAAAAAAAAAAAAAAAAAAAAAAAAAAAAAAAAAAAAAAAAAAAAAAAAAAAAAAAAAAAAAAAAAAAAAAAAAAAAAAAAAAAAAAAAAAAAAAAAAAAAAAAAAAAAAAAAAAAAAAAAAAAAAAAAAAAAAAAAAAAAAAAAAAAAAAAAAAAAAAAAAAAAAAAAAAAAAAAAAAAAAAAAAAAAAAAAAAAAAAAAAAAAAAAAAAAAAAAAAAAAAAAAAAAAAAAAAAAAAAAAAAAAAAAAAAAAAAAAAAAAAAAAAAAAAAAAAAAAAAAAAAAAAAAAAAAAAAAAAAAAAAAAAAAAAAAAAAAAAAAAAAAAAAAAAAAAAAAAAAAAAAAAAAAAAAAAAAAAAAAAAAAAAAAAAAAAAAAAAAAAAAAAAAAAAAAAAAAAAAAAAAAAAAAAAAAAAAAAAAAAAAAAAAAAAAAAAAAAAAAAAAAAAAAAAAAAAAAAAAAAAAAAAAAAAAAAAAAAAAAAAAAAAAAAAAAAAAAAAAAAAAAAAAAAAAAAAAAAAAAAAAAAAPZYQBB6w9HOa1KC7NLpuEVBRheKCDQiKCjKeWvcsxgx1WSSflzvwTapTaUkBG2yQDmLeMIsH8mnnBZzUU3B2CPLFuY=</c2pa:manifest></metadata>
<defs><style>text{paint-order:stroke;stroke:#fff;stroke-width:3px;stroke-linejoin:round}</style></defs>
<rect width="1560" height="1560" fill="#f4efe4"/>
<rect x="60" y="60" width="1440" height="1440" fill="#a9c98a"/>
<line x1="80" y1="60" x2="80" y2="1500" stroke="#ffffff" stroke-opacity="0.35" stroke-width="1"/>
<line x1="60" y1="80" x2="1500" y2="80" stroke="#ffffff" stroke-opacity="0.35" stroke-width="1"/>
<text x="80" y="52" font-size="12" text-anchor="middle" fill="#555">x -70</text>
<text x="54" y="84" font-size="12" text-anchor="end" fill="#555">z -70</text>
<line x1="180" y1="60" x2="180" y2="1500" stroke="#ffffff" stroke-opacity="0.35" stroke-width="1"/>
<line x1="60" y1="180" x2="1500" y2="180" stroke="#ffffff" stroke-opacity="0.35" stroke-width="1"/>
<text x="180" y="52" font-size="12" text-anchor="middle" fill="#555">x -60</text>
<text x="54" y="184" font-size="12" text-anchor="end" fill="#555">z -60</text>
<line x1="280" y1="60" x2="280" y2="1500" stroke="#ffffff" stroke-opacity="0.35" stroke-width="1"/>
<line x1="60" y1="280" x2="1500" y2="280" stroke="#ffffff" stroke-opacity="0.35" stroke-width="1"/>
<text x="280" y="52" font-size="12" text-anchor="middle" fill="#555">x -50</text>
<text x="54" y="284" font-size="12" text-anchor="end" fill="#555">z -50</text>
<line x1="380" y1="60" x2="380" y2="1500" stroke="#ffffff" stroke-opacity="0.35" stroke-width="1"/>
<line x1="60" y1="380" x2="1500" y2="380" stroke="#ffffff" stroke-opacity="0.35" stroke-width="1"/>
<text x="380" y="52" font-size="12" text-anchor="middle" fill="#555">x -40</text>
<text x="54" y="384" font-size="12" text-anchor="end" fill="#555">z -40</text>
<line x1="480" y1="60" x2="480" y2="1500" stroke="#ffffff" stroke-opacity="0.35" stroke-width="1"/>
<line x1="60" y1="480" x2="1500" y2="480" stroke="#ffffff" stroke-opacity="0.35" stroke-width="1"/>
<text x="480" y="52" font-size="12" text-anchor="middle" fill="#555">x -30</text>
<text x="54" y="484" font-size="12" text-anchor="end" fill="#555">z -30</text>
<line x1="580" y1="60" x2="580" y2="1500" stroke="#ffffff" stroke-opacity="0.35" stroke-width="1"/>
<line x1="60" y1="580" x2="1500" y2="580" stroke="#ffffff" stroke-opacity="0.35" stroke-width="1"/>
<text x="580" y="52" font-size="12" text-anchor="middle" fill="#555">x -20</text>
<text x="54" y="584" font-size="12" text-anchor="end" fill="#555">z -20</text>
<line x1="680" y1="60" x2="680" y2="1500" stroke="#ffffff" stroke-opacity="0.35" stroke-width="1"/>
<line x1="60" y1="680" x2="1500" y2="680" stroke="#ffffff" stroke-opacity="0.35" stroke-width="1"/>
<text x="680" y="52" font-size="12" text-anchor="middle" fill="#555">x -10</text>
<text x="54" y="684" font-size="12" text-anchor="end" fill="#555">z -10</text>
<line x1="780" y1="60" x2="780" y2="1500" stroke="#ffffff" stroke-opacity="0.35" stroke-width="1"/>
<line x1="60" y1="780" x2="1500" y2="780" stroke="#ffffff" stroke-opacity="0.35" stroke-width="1"/>
<text x="780" y="52" font-size="12" text-anchor="middle" fill="#555">x 0</text>
<text x="54" y="784" font-size="12" text-anchor="end" fill="#555">z 0</text>
<line x1="880" y1="60" x2="880" y2="1500" stroke="#ffffff" stroke-opacity="0.35" stroke-width="1"/>
<line x1="60" y1="880" x2="1500" y2="880" stroke="#ffffff" stroke-opacity="0.35" stroke-width="1"/>
<text x="880" y="52" font-size="12" text-anchor="middle" fill="#555">x 10</text>
<text x="54" y="884" font-size="12" text-anchor="end" fill="#555">z 10</text>
<line x1="980" y1="60" x2="980" y2="1500" stroke="#ffffff" stroke-opacity="0.35" stroke-width="1"/>
<line x1="60" y1="980" x2="1500" y2="980" stroke="#ffffff" stroke-opacity="0.35" stroke-width="1"/>
<text x="980" y="52" font-size="12" text-anchor="middle" fill="#555">x 20</text>
<text x="54" y="984" font-size="12" text-anchor="end" fill="#555">z 20</text>
<line x1="1080" y1="60" x2="1080" y2="1500" stroke="#ffffff" stroke-opacity="0.35" stroke-width="1"/>
<line x1="60" y1="1080" x2="1500" y2="1080" stroke="#ffffff" stroke-opacity="0.35" stroke-width="1"/>
<text x="1080" y="52" font-size="12" text-anchor="middle" fill="#555">x 30</text>
<text x="54" y="1084" font-size="12" text-anchor="end" fill="#555">z 30</text>
<line x1="1180" y1="60" x2="1180" y2="1500" stroke="#ffffff" stroke-opacity="0.35" stroke-width="1"/>
<line x1="60" y1="1180" x2="1500" y2="1180" stroke="#ffffff" stroke-opacity="0.35" stroke-width="1"/>
<text x="1180" y="52" font-size="12" text-anchor="middle" fill="#555">x 40</text>
<text x="54" y="1184" font-size="12" text-anchor="end" fill="#555">z 40</text>
<line x1="1280" y1="60" x2="1280" y2="1500" stroke="#ffffff" stroke-opacity="0.35" stroke-width="1"/>
<line x1="60" y1="1280" x2="1500" y2="1280" stroke="#ffffff" stroke-opacity="0.35" stroke-width="1"/>
<text x="1280" y="52" font-size="12" text-anchor="middle" fill="#555">x 50</text>
<text x="54" y="1284" font-size="12" text-anchor="end" fill="#555">z 50</text>
<line x1="1380" y1="60" x2="1380" y2="1500" stroke="#ffffff" stroke-opacity="0.35" stroke-width="1"/>
<line x1="60" y1="1380" x2="1500" y2="1380" stroke="#ffffff" stroke-opacity="0.35" stroke-width="1"/>
<text x="1380" y="52" font-size="12" text-anchor="middle" fill="#555">x 60</text>
<text x="54" y="1384" font-size="12" text-anchor="end" fill="#555">z 60</text>
<line x1="1480" y1="60" x2="1480" y2="1500" stroke="#ffffff" stroke-opacity="0.35" stroke-width="1"/>
<line x1="60" y1="1480" x2="1500" y2="1480" stroke="#ffffff" stroke-opacity="0.35" stroke-width="1"/>
<text x="1480" y="52" font-size="12" text-anchor="middle" fill="#555">x 70</text>
<text x="54" y="1484" font-size="12" text-anchor="end" fill="#555">z 70</text>
<line x1="780" y1="60" x2="780" y2="1500" stroke="#000" stroke-opacity="0.18" stroke-width="1.5"/>
<line x1="60" y1="780" x2="1500" y2="780" stroke="#000" stroke-opacity="0.18" stroke-width="1.5"/>
<circle cx="780" cy="780" r="630" fill="none" stroke="#8c7b62" stroke-width="18.0" stroke-opacity="0.85"/>
<circle cx="780.0" cy="1410.0" r="52.0" fill="#5c3a1e" stroke="#3a2416" stroke-width="2"/>
<text x="780.0" y="1415.0" font-size="13" font-weight="700" text-anchor="middle" fill="#fff" stroke="#3a2416">S gate</text>
<circle cx="1410.0" cy="780.0" r="52.0" fill="#5c3a1e" stroke="#3a2416" stroke-width="2"/>
<text x="1410.0" y="785.0" font-size="13" font-weight="700" text-anchor="middle" fill="#fff" stroke="#3a2416">E gate</text>
<circle cx="150.0" cy="780.0" r="52.0" fill="#5c3a1e" stroke="#3a2416" stroke-width="2"/>
<text x="150.0" y="785.0" font-size="13" font-weight="700" text-anchor="middle" fill="#fff" stroke="#3a2416">W gate</text>
<circle cx="1021.0905623900065" cy="1362.0441054821106" r="24.0" fill="#b9a98e" stroke="#6b5a44" stroke-width="2"/>
<circle cx="1362.0441054821106" cy="1021.0905623900067" r="24.0" fill="#b9a98e" stroke="#6b5a44" stroke-width="2"/>
<circle cx="1362.0441054821106" cy="538.9094376099935" r="24.0" fill="#b9a98e" stroke="#6b5a44" stroke-width="2"/>
<circle cx="1021.0905623900067" cy="197.95589451788936" r="24.0" fill="#b9a98e" stroke="#6b5a44" stroke-width="2"/>
<circle cx="538.9094376099935" cy="197.95589451788928" r="24.0" fill="#b9a98e" stroke="#6b5a44" stroke-width="2"/>
<circle cx="197.95589451788948" cy="538.9094376099931" r="24.0" fill="#b9a98e" stroke="#6b5a44" stroke-width="2"/>
<circle cx="197.95589451788942" cy="1021.0905623900067" r="24.0" fill="#b9a98e" stroke="#6b5a44" stroke-width="2"/>
<circle cx="538.9094376099931" cy="1362.0441054821106" r="24.0" fill="#b9a98e" stroke="#6b5a44" stroke-width="2"/>
<circle cx="712.131959725205" cy="1406.3337202396651" r="24.0" fill="#b9a98e" stroke="#6b5a44" stroke-width="2"/>
<circle cx="847.868040274795" cy="1406.3337202396651" r="24.0" fill="#b9a98e" stroke="#6b5a44" stroke-width="2"/>
<circle cx="1406.3337202396651" cy="847.868040274795" r="24.0" fill="#b9a98e" stroke="#6b5a44" stroke-width="2"/>
<circle cx="1406.3337202396651" cy="712.131959725205" r="24.0" fill="#b9a98e" stroke="#6b5a44" stroke-width="2"/>
<circle cx="153.66627976033513" cy="712.131959725205" r="24.0" fill="#b9a98e" stroke="#6b5a44" stroke-width="2"/>
<circle cx="153.66627976033513" cy="847.868040274795" r="24.0" fill="#b9a98e" stroke="#6b5a44" stroke-width="2"/>
<circle cx="780" cy="780" r="500" fill="none" stroke="#c9b48e" stroke-width="90"/>
<rect x="720" y="260" width="120" height="1130" fill="#c9b48e"/>
<rect x="170" y="720" width="1220" height="120" fill="#c9b48e"/>
<rect x="610" y="950" width="300" height="200" fill="#d7bb8f"/>
<circle cx="780" cy="780" r="130" fill="#d7bb8f"/>
<circle cx="780" cy="780" r="40" fill="#a9c98a"/>
<circle cx="780" cy="780" r="28.0" fill="#7fc8e8" stroke="#3f7fa8" stroke-width="2"/>
<text x="780" y="784" font-size="11" text-anchor="middle" fill="#1a3a5a">Fountain</text>
<circle cx="620.0" cy="960.0" r="6.75" fill="#c8c24a" fill-opacity="0.8" stroke="#2f5a25" stroke-width="1"/>
<circle cx="913.0" cy="972.0" r="6.75" fill="#c8c24a" fill-opacity="0.8" stroke="#2f5a25" stroke-width="1"/>
<circle cx="603.0" cy="1115.0" r="7.200000000000001" fill="#4f9b3c" fill-opacity="0.8" stroke="#2f5a25" stroke-width="1"/>
<circle cx="706.0" cy="1118.0" r="6.3" fill="#4f9b3c" fill-opacity="0.8" stroke="#2f5a25" stroke-width="1"/>
<circle cx="635.0" cy="678.0" r="6.3" fill="#c8c24a" fill-opacity="0.8" stroke="#2f5a25" stroke-width="1"/>
<circle cx="925.0" cy="614.0" r="6.3" fill="#c8c24a" fill-opacity="0.8" stroke="#2f5a25" stroke-width="1"/>
<circle cx="632.0" cy="458.0" r="7.200000000000001" fill="#ff8a9a" fill-opacity="0.8" stroke="#2f5a25" stroke-width="1"/>
<circle cx="714.0" cy="456.0" r="5.4" fill="#ff8a9a" fill-opacity="0.8" stroke="#2f5a25" stroke-width="1"/>
<circle cx="1038.0" cy="942.0" r="6.3" fill="#ff7040" fill-opacity="0.8" stroke="#2f5a25" stroke-width="1"/>
<circle cx="962.0" cy="942.0" r="6.3" fill="#ff7040" fill-opacity="0.8" stroke="#2f5a25" stroke-width="1"/>
<circle cx="535.0" cy="925.0" r="6.3" fill="#4f9b3c" fill-opacity="0.8" stroke="#2f5a25" stroke-width="1"/>
<circle cx="625.0" cy="925.0" r="5.4" fill="#4f9b3c" fill-opacity="0.8" stroke="#2f5a25" stroke-width="1"/>
<circle cx="905.0" cy="870.0" r="4.95" fill="#4f9b3c" fill-opacity="0.8" stroke="#2f5a25" stroke-width="1"/>
<circle cx="655.0" cy="870.0" r="4.95" fill="#4f9b3c" fill-opacity="0.8" stroke="#2f5a25" stroke-width="1"/>
<circle cx="905.0" cy="690.0" r="4.95" fill="#4f9b3c" fill-opacity="0.8" stroke="#2f5a25" stroke-width="1"/>
<circle cx="655.0" cy="690.0" r="4.95" fill="#4f9b3c" fill-opacity="0.8" stroke="#2f5a25" stroke-width="1"/>
<circle cx="875.0" cy="215.0" r="8.100000000000001" fill="#c8c24a" fill-opacity="0.8" stroke="#2f5a25" stroke-width="1"/>
<circle cx="685.0" cy="215.0" r="8.100000000000001" fill="#c8c24a" fill-opacity="0.8" stroke="#2f5a25" stroke-width="1"/>
<circle cx="1115.3722244901155" cy="1271.4778438958888" r="8.55" fill="#c8c24a" fill-opacity="0.8" stroke="#2f5a25" stroke-width="1"/>
<circle cx="1295.404178027759" cy="1077.2936818560563" r="9.9" fill="#ff7040" fill-opacity="0.8" stroke="#2f5a25" stroke-width="1"/>
<circle cx="1333.7828088495903" cy="562.4003662166268" r="8.55" fill="#c8c24a" fill-opacity="0.8" stroke="#2f5a25" stroke-width="1"/>
<circle cx="1184.528127616496" cy="343.6721485315291" r="9.9" fill="#ff7040" fill-opacity="0.8" stroke="#2f5a25" stroke-width="1"/>
<circle cx="955.151689497049" cy="211.36401303968688" r="7.200000000000001" fill="#4f9b3c" fill-opacity="0.8" stroke="#2f5a25" stroke-width="1"/>
<circle cx="444.6277755098846" cy="288.5221561041112" r="9.9" fill="#ff7040" fill-opacity="0.8" stroke="#2f5a25" stroke-width="1"/>
<circle cx="264.59582197224086" cy="482.7063181439437" r="7.200000000000001" fill="#4f9b3c" fill-opacity="0.8" stroke="#2f5a25" stroke-width="1"/>
<circle cx="226.21719115040975" cy="997.5996337833733" r="9.9" fill="#ff7040" fill-opacity="0.8" stroke="#2f5a25" stroke-width="1"/>
<circle cx="375.47187238350426" cy="1216.3278514684712" r="7.200000000000001" fill="#4f9b3c" fill-opacity="0.8" stroke="#2f5a25" stroke-width="1"/>
<circle cx="604.8483105029512" cy="1348.6359869603132" r="8.55" fill="#c8c24a" fill-opacity="0.8" stroke="#2f5a25" stroke-width="1"/>
<circle cx="634.5" cy="884.5" r="4.5" fill="#4f9b3c" fill-opacity="0.8" stroke="#2f5a25" stroke-width="1"/>
<circle cx="645.5" cy="884.5" r="4.5" fill="#4f9b3c" fill-opacity="0.8" stroke="#2f5a25" stroke-width="1"/>
<circle cx="634.5" cy="895.5" r="4.5" fill="#4f9b3c" fill-opacity="0.8" stroke="#2f5a25" stroke-width="1"/>
<circle cx="645.5" cy="895.5" r="4.5" fill="#4f9b3c" fill-opacity="0.8" stroke="#2f5a25" stroke-width="1"/>
<circle cx="914.5" cy="884.5" r="4.5" fill="#4f9b3c" fill-opacity="0.8" stroke="#2f5a25" stroke-width="1"/>
<circle cx="925.5" cy="884.5" r="4.5" fill="#4f9b3c" fill-opacity="0.8" stroke="#2f5a25" stroke-width="1"/>
<circle cx="914.5" cy="895.5" r="4.5" fill="#4f9b3c" fill-opacity="0.8" stroke="#2f5a25" stroke-width="1"/>
<circle cx="925.5" cy="895.5" r="4.5" fill="#4f9b3c" fill-opacity="0.8" stroke="#2f5a25" stroke-width="1"/>
<circle cx="914.5" cy="1044.5" r="4.5" fill="#4f9b3c" fill-opacity="0.8" stroke="#2f5a25" stroke-width="1"/>
<circle cx="925.5" cy="1044.5" r="4.5" fill="#4f9b3c" fill-opacity="0.8" stroke="#2f5a25" stroke-width="1"/>
<circle cx="914.5" cy="1055.5" r="4.5" fill="#4f9b3c" fill-opacity="0.8" stroke="#2f5a25" stroke-width="1"/>
<circle cx="925.5" cy="1055.5" r="4.5" fill="#4f9b3c" fill-opacity="0.8" stroke="#2f5a25" stroke-width="1"/>
<circle cx="679.5" cy="1199.5" r="4.5" fill="#4f9b3c" fill-opacity="0.8" stroke="#2f5a25" stroke-width="1"/>
<circle cx="690.5" cy="1199.5" r="4.5" fill="#4f9b3c" fill-opacity="0.8" stroke="#2f5a25" stroke-width="1"/>
<circle cx="679.5" cy="1210.5" r="4.5" fill="#4f9b3c" fill-opacity="0.8" stroke="#2f5a25" stroke-width="1"/>
<circle cx="690.5" cy="1210.5" r="4.5" fill="#4f9b3c" fill-opacity="0.8" stroke="#2f5a25" stroke-width="1"/>
<circle cx="940.0" cy="980.0" r="16.15" fill="#ff8a9a" fill-opacity="0.85" stroke="#2f5a25" stroke-width="1.5"/>
<circle cx="940.0" cy="980.0" r="3.0" fill="#6b4a2e"/>
<circle cx="585.0" cy="990.0" r="18.1355" fill="#4f9b3c" fill-opacity="0.85" stroke="#2f5a25" stroke-width="1.5"/>
<circle cx="585.0" cy="990.0" r="3.0" fill="#6b4a2e"/>
<circle cx="950.0" cy="1130.0" r="20.121" fill="#ff8a9a" fill-opacity="0.85" stroke="#2f5a25" stroke-width="1.5"/>
<circle cx="950.0" cy="1130.0" r="3.0" fill="#6b4a2e"/>
<circle cx="580.0" cy="1160.0" r="22.106499999999997" fill="#4f9b3c" fill-opacity="0.85" stroke="#2f5a25" stroke-width="1.5"/>
<circle cx="580.0" cy="1160.0" r="3.0" fill="#6b4a2e"/>
<circle cx="1005.0" cy="530.0" r="24.092" fill="#c8c24a" fill-opacity="0.85" stroke="#2f5a25" stroke-width="1.5"/>
<circle cx="1005.0" cy="530.0" r="3.0" fill="#6b4a2e"/>
<circle cx="545.0" cy="485.0" r="26.077499999999997" fill="#c8c24a" fill-opacity="0.85" stroke="#2f5a25" stroke-width="1.5"/>
<circle cx="545.0" cy="485.0" r="3.0" fill="#6b4a2e"/>
<circle cx="940.0" cy="905.0" r="17.613" fill="#4f9b3c" fill-opacity="0.85" stroke="#2f5a25" stroke-width="1.5"/>
<circle cx="940.0" cy="905.0" r="3.0" fill="#6b4a2e"/>
<circle cx="620.0" cy="905.0" r="19.5985" fill="#ff8a9a" fill-opacity="0.85" stroke="#2f5a25" stroke-width="1.5"/>
<circle cx="620.0" cy="905.0" r="3.0" fill="#6b4a2e"/>
<circle cx="1080.0" cy="920.0" r="21.584000000000003" fill="#ff7040" fill-opacity="0.85" stroke="#2f5a25" stroke-width="1.5"/>
<circle cx="1080.0" cy="920.0" r="3.0" fill="#6b4a2e"/>
<circle cx="500.0" cy="550.0" r="23.569499999999998" fill="#4f9b3c" fill-opacity="0.85" stroke="#2f5a25" stroke-width="1.5"/>
<circle cx="500.0" cy="550.0" r="3.0" fill="#6b4a2e"/>
<circle cx="1065.0" cy="570.0" r="25.555" fill="#ff7040" fill-opacity="0.85" stroke="#2f5a25" stroke-width="1.5"/>
<circle cx="1065.0" cy="570.0" r="3.0" fill="#6b4a2e"/>
<circle cx="480.0" cy="940.0" r="17.0905" fill="#4f9b3c" fill-opacity="0.85" stroke="#2f5a25" stroke-width="1.5"/>
<circle cx="480.0" cy="940.0" r="3.0" fill="#6b4a2e"/>
<circle cx="1360.0" cy="880.0" r="19.076" fill="#ff7040" fill-opacity="0.85" stroke="#2f5a25" stroke-width="1.5"/>
<circle cx="1360.0" cy="880.0" r="3.0" fill="#6b4a2e"/>
<circle cx="1360.0" cy="680.0" r="21.0615" fill="#ff7040" fill-opacity="0.85" stroke="#2f5a25" stroke-width="1.5"/>
<circle cx="1360.0" cy="680.0" r="3.0" fill="#6b4a2e"/>
<circle cx="200.0" cy="880.0" r="23.047" fill="#4f9b3c" fill-opacity="0.85" stroke="#2f5a25" stroke-width="1.5"/>
<circle cx="200.0" cy="880.0" r="3.0" fill="#6b4a2e"/>
<circle cx="200.0" cy="680.0" r="25.032499999999995" fill="#c8c24a" fill-opacity="0.85" stroke="#2f5a25" stroke-width="1.5"/>
<circle cx="200.0" cy="680.0" r="3.0" fill="#6b4a2e"/>
<circle cx="900.0" cy="200.0" r="16.567999999999998" fill="#c8c24a" fill-opacity="0.85" stroke="#2f5a25" stroke-width="1.5"/>
<circle cx="900.0" cy="200.0" r="3.0" fill="#6b4a2e"/>
<circle cx="660.0" cy="200.0" r="18.5535" fill="#c8c24a" fill-opacity="0.85" stroke="#2f5a25" stroke-width="1.5"/>
<circle cx="660.0" cy="200.0" r="3.0" fill="#6b4a2e"/>
<circle cx="880.0" cy="1360.0" r="20.538999999999994" fill="#ff8a9a" fill-opacity="0.85" stroke="#2f5a25" stroke-width="1.5"/>
<circle cx="880.0" cy="1360.0" r="3.0" fill="#6b4a2e"/>
<circle cx="680.0" cy="1360.0" r="22.5245" fill="#4f9b3c" fill-opacity="0.85" stroke="#2f5a25" stroke-width="1.5"/>
<circle cx="680.0" cy="1360.0" r="3.0" fill="#6b4a2e"/>
<circle cx="1200.0" cy="1160.0" r="24.51" fill="#4f9b3c" fill-opacity="0.85" stroke="#2f5a25" stroke-width="1.5"/>
<circle cx="1200.0" cy="1160.0" r="3.0" fill="#6b4a2e"/>
<circle cx="360.0" cy="1160.0" r="26.495499999999996" fill="#c8c24a" fill-opacity="0.85" stroke="#2f5a25" stroke-width="1.5"/>
<circle cx="360.0" cy="1160.0" r="3.0" fill="#6b4a2e"/>
<circle cx="1200.0" cy="400.0" r="18.031" fill="#ff7040" fill-opacity="0.85" stroke="#2f5a25" stroke-width="1.5"/>
<circle cx="1200.0" cy="400.0" r="3.0" fill="#6b4a2e"/>
<circle cx="360.0" cy="400.0" r="20.0165" fill="#4f9b3c" fill-opacity="0.85" stroke="#2f5a25" stroke-width="1.5"/>
<circle cx="360.0" cy="400.0" r="3.0" fill="#6b4a2e"/>
<circle cx="1160.0" cy="1200.0" r="22.001999999999995" fill="#ff8a9a" fill-opacity="0.85" stroke="#2f5a25" stroke-width="1.5"/>
<circle cx="1160.0" cy="1200.0" r="3.0" fill="#6b4a2e"/>
<circle cx="400.0" cy="1200.0" r="23.987499999999997" fill="#4f9b3c" fill-opacity="0.85" stroke="#2f5a25" stroke-width="1.5"/>
<circle cx="400.0" cy="1200.0" r="3.0" fill="#6b4a2e"/>
<circle cx="1160.0" cy="360.0" r="25.973" fill="#c8c24a" fill-opacity="0.85" stroke="#2f5a25" stroke-width="1.5"/>
<circle cx="1160.0" cy="360.0" r="3.0" fill="#6b4a2e"/>
<circle cx="400.0" cy="360.0" r="17.508499999999998" fill="#c8c24a" fill-opacity="0.85" stroke="#2f5a25" stroke-width="1.5"/>
<circle cx="400.0" cy="360.0" r="3.0" fill="#6b4a2e"/>
<circle cx="1480.0" cy="1030.0" r="19.494" fill="#4f9b3c" fill-opacity="0.85" stroke="#2f5a25" stroke-width="1.5"/>
<circle cx="1480.0" cy="1030.0" r="3.0" fill="#6b4a2e"/>
<circle cx="80.0" cy="1030.0" r="21.479499999999998" fill="#c8c24a" fill-opacity="0.85" stroke="#2f5a25" stroke-width="1.5"/>
<circle cx="80.0" cy="1030.0" r="3.0" fill="#6b4a2e"/>
<circle cx="1480.0" cy="480.0" r="23.464999999999996" fill="#ff7040" fill-opacity="0.85" stroke="#2f5a25" stroke-width="1.5"/>
<circle cx="1480.0" cy="480.0" r="3.0" fill="#6b4a2e"/>
<circle cx="80.0" cy="480.0" r="25.4505" fill="#4f9b3c" fill-opacity="0.85" stroke="#2f5a25" stroke-width="1.5"/>
<circle cx="80.0" cy="480.0" r="3.0" fill="#6b4a2e"/>
<circle cx="1080.0" cy="1480.0" r="16.985999999999997" fill="#4f9b3c" fill-opacity="0.85" stroke="#2f5a25" stroke-width="1.5"/>
<circle cx="1080.0" cy="1480.0" r="3.0" fill="#6b4a2e"/>
<circle cx="480.0" cy="1480.0" r="18.9715" fill="#ff8a9a" fill-opacity="0.85" stroke="#2f5a25" stroke-width="1.5"/>
<circle cx="480.0" cy="1480.0" r="3.0" fill="#6b4a2e"/>
<circle cx="1080.0" cy="80.0" r="20.957" fill="#c8c24a" fill-opacity="0.85" stroke="#2f5a25" stroke-width="1.5"/>
<circle cx="1080.0" cy="80.0" r="3.0" fill="#6b4a2e"/>
<circle cx="480.0" cy="80.0" r="22.9425" fill="#4f9b3c" fill-opacity="0.85" stroke="#2f5a25" stroke-width="1.5"/>
<circle cx="480.0" cy="80.0" r="3.0" fill="#6b4a2e"/>
<circle cx="1380.0" cy="1300.0" r="24.927999999999997" fill="#c8c24a" fill-opacity="0.85" stroke="#2f5a25" stroke-width="1.5"/>
<circle cx="1380.0" cy="1300.0" r="3.0" fill="#6b4a2e"/>
<circle cx="180.0" cy="1300.0" r="16.463499999999996" fill="#4f9b3c" fill-opacity="0.85" stroke="#2f5a25" stroke-width="1.5"/>
<circle cx="180.0" cy="1300.0" r="3.0" fill="#6b4a2e"/>
<circle cx="1330.0" cy="200.0" r="18.448999999999998" fill="#4f9b3c" fill-opacity="0.85" stroke="#2f5a25" stroke-width="1.5"/>
<circle cx="1330.0" cy="200.0" r="3.0" fill="#6b4a2e"/>
<circle cx="230.0" cy="200.0" r="20.434499999999996" fill="#c8c24a" fill-opacity="0.85" stroke="#2f5a25" stroke-width="1.5"/>
<circle cx="230.0" cy="200.0" r="3.0" fill="#6b4a2e"/>
<circle cx="1580.0" cy="830.0" r="22.42" fill="#4f9b3c" fill-opacity="0.85" stroke="#2f5a25" stroke-width="1.5"/>
<circle cx="1580.0" cy="830.0" r="3.0" fill="#6b4a2e"/>
<circle cx="-20.0" cy="730.0" r="24.4055" fill="#4f9b3c" fill-opacity="0.85" stroke="#2f5a25" stroke-width="1.5"/>
<circle cx="-20.0" cy="730.0" r="3.0" fill="#6b4a2e"/>
<circle cx="830.0" cy="1600.0" r="26.391" fill="#c8c24a" fill-opacity="0.85" stroke="#2f5a25" stroke-width="1.5"/>
<circle cx="830.0" cy="1600.0" r="3.0" fill="#6b4a2e"/>
<circle cx="700.0" cy="-20.0" r="17.926499999999997" fill="#ff7040" fill-opacity="0.85" stroke="#2f5a25" stroke-width="1.5"/>
<circle cx="700.0" cy="-20.0" r="3.0" fill="#6b4a2e"/>
<circle cx="950.0" cy="1165.0" r="19.912" fill="#ff8a9a" fill-opacity="0.85" stroke="#2f5a25" stroke-width="1.5"/>
<circle cx="950.0" cy="1165.0" r="3.0" fill="#6b4a2e"/>
<circle cx="540.0" cy="1300.0" r="21.8975" fill="#4f9b3c" fill-opacity="0.85" stroke="#2f5a25" stroke-width="1.5"/>
<circle cx="540.0" cy="1300.0" r="3.0" fill="#6b4a2e"/>
<circle cx="1000.0" cy="1320.0" r="23.883000000000003" fill="#4f9b3c" fill-opacity="0.85" stroke="#2f5a25" stroke-width="1.5"/>
<circle cx="1000.0" cy="1320.0" r="3.0" fill="#6b4a2e"/>
<circle cx="510.0" cy="1310.0" r="25.868499999999997" fill="#ff8a9a" fill-opacity="0.85" stroke="#2f5a25" stroke-width="1.5"/>
<circle cx="510.0" cy="1310.0" r="3.0" fill="#6b4a2e"/>
<circle cx="565.0" cy="530.0" r="17.403999999999996" fill="#ff8a9a" fill-opacity="0.85" stroke="#2f5a25" stroke-width="1.5"/>
<circle cx="565.0" cy="530.0" r="3.0" fill="#6b4a2e"/>
<text x="851.0" y="1194.0" font-size="14" text-anchor="middle" stroke="none">✿</text>
<text x="669.0" y="1354.0" font-size="14" text-anchor="middle" stroke="none">✿</text>
<text x="973.0" y="1153.0" font-size="14" text-anchor="middle" stroke="none">✿</text>
<text x="487.0" y="1286.0" font-size="14" text-anchor="middle" stroke="none">✿</text>
<text x="1189.0" y="856.0" font-size="14" text-anchor="middle" stroke="none">✿</text>
<text x="1349.0" y="674.0" font-size="14" text-anchor="middle" stroke="none">✿</text>
<text x="373.0" y="865.0" font-size="14" text-anchor="middle" stroke="none">✿</text>
<text x="209.0" y="686.0" font-size="14" text-anchor="middle" stroke="none">✿</text>
<text x="863.0" y="378.0" font-size="14" text-anchor="middle" stroke="none">✿</text>
<text x="664.0" y="217.00000000000003" font-size="14" text-anchor="middle" stroke="none">✿</text>
<text x="1073.0" y="1078.0" font-size="14" text-anchor="middle" stroke="none">✿</text>
<text x="370.0" y="1195.0" font-size="14" text-anchor="middle" stroke="none">✿</text>
<text x="1073.0" y="492.0" font-size="14" text-anchor="middle" stroke="none">✿</text>
<text x="370.0" y="375.0" font-size="14" text-anchor="middle" stroke="none">✿</text>
<text x="909.0" y="1179.0" font-size="14" text-anchor="middle" stroke="none">✿</text>
<text x="600.0" y="1336.0" font-size="14" text-anchor="middle" stroke="none">✿</text>
<circle cx="930.0" cy="1020.0" r="6.0" fill="#8a8a8a" stroke="#555" stroke-width="1"/>
<circle cx="590.0" cy="1020.0" r="6.0" fill="#8a8a8a" stroke="#555" stroke-width="1"/>
<circle cx="1030.0" cy="620.0" r="6.0" fill="#8a8a8a" stroke="#555" stroke-width="1"/>
<circle cx="530.0" cy="600.0" r="6.0" fill="#8a8a8a" stroke="#555" stroke-width="1"/>
<circle cx="880.0" cy="480.0" r="6.0" fill="#8a8a8a" stroke="#555" stroke-width="1"/>
<circle cx="640.0" cy="460.0" r="6.0" fill="#8a8a8a" stroke="#555" stroke-width="1"/>
<circle cx="1080.0" cy="880.0" r="6.0" fill="#8a8a8a" stroke="#555" stroke-width="1"/>
<circle cx="460.0" cy="880.0" r="6.0" fill="#8a8a8a" stroke="#555" stroke-width="1"/>
<circle cx="1315.0" cy="557.0" r="6.0" fill="#8a8a8a" stroke="#555" stroke-width="1"/>
<circle cx="244.0" cy="981.0" r="6.0" fill="#8a8a8a" stroke="#555" stroke-width="1"/>
<circle cx="1003.0" cy="245.0" r="6.0" fill="#8a8a8a" stroke="#555" stroke-width="1"/>
<circle cx="579.0" cy="1316.0" r="6.0" fill="#8a8a8a" stroke="#555" stroke-width="1"/>
<circle cx="1330.0" cy="1130.0" r="6.0" fill="#8a8a8a" stroke="#555" stroke-width="1"/>
<circle cx="230.0" cy="380.0" r="6.0" fill="#8a8a8a" stroke="#555" stroke-width="1"/>
<circle cx="1160.0" cy="230.0" r="6.0" fill="#8a8a8a" stroke="#555" stroke-width="1"/>
<circle cx="380.0" cy="1330.0" r="6.0" fill="#8a8a8a" stroke="#555" stroke-width="1"/>
<rect x="615.0" y="1020.0" width="100.0" height="80.0" fill="#f3e4c4" stroke="#ffd166" stroke-width="4"/>
<rect x="659.5" y="1097.0" width="11.0" height="6" fill="#5c3a1e"/>
<text x="665.0" y="1056.0" font-size="12" font-weight="700" text-anchor="middle" fill="#2b2d42">The Tavern</text>
<text x="665.0" y="1071.0" font-size="10" text-anchor="middle" fill="#555">(-11.5, 28)  10×8</text>
<rect x="667.5" y="905.0" width="45.0" height="40.0" fill="#f3e4c4" stroke="#ffd166" stroke-width="4"/>
<rect x="684.5" y="942.0" width="11.0" height="6" fill="#5c3a1e"/>
<text x="690.0" y="921.0" font-size="12" font-weight="700" text-anchor="middle" fill="#2b2d42">Adventurer Stats</text>
<text x="690.0" y="936.0" font-size="10" text-anchor="middle" fill="#555">(-9, 14.5)  4.5×4</text>
<rect x="857.5" y="920.0" width="45.0" height="40.0" fill="#f3e4c4" stroke="#ffd166" stroke-width="4"/>
<rect x="874.5" y="957.0" width="11.0" height="6" fill="#5c3a1e"/>
<text x="880.0" y="936.0" font-size="12" font-weight="700" text-anchor="middle" fill="#2b2d42">Guild Board</text>
<text x="880.0" y="951.0" font-size="10" text-anchor="middle" fill="#555">(10, 16)  4.5×4</text>
<rect x="642.5" y="545.0" width="55.0" height="50.0" fill="#f3e4c4" stroke="#e08a2e" stroke-width="4"/>
<rect x="664.5" y="592.0" width="11.0" height="6" fill="#5c3a1e"/>
<text x="670.0" y="566.0" font-size="12" font-weight="700" text-anchor="middle" fill="#2b2d42">The Forge ★</text>
<text x="670.0" y="581.0" font-size="10" text-anchor="middle" fill="#555">(-11, -21)  5.5×5</text>
<rect x="955.0" y="652.5" width="50.0" height="45.0" fill="#f3e4c4" stroke="#06d6a0" stroke-width="4"/>
<rect x="974.5" y="694.5" width="11.0" height="6" fill="#5c3a1e"/>
<text x="980.0" y="671.0" font-size="12" font-weight="700" text-anchor="middle" fill="#2b2d42">Ledger Sanctum ★</text>
<text x="980.0" y="686.0" font-size="10" text-anchor="middle" fill="#555">(20, -10.5)  5×4.5</text>
<rect x="645.0" y="395.0" width="60.0" height="50.0" fill="#f3e4c4" stroke="#e08a2e" stroke-width="4"/>
<rect x="669.5" y="442.0" width="11.0" height="6" fill="#5c3a1e"/>
<text x="675.0" y="416.0" font-size="12" font-weight="700" text-anchor="middle" fill="#2b2d42">Tiny Tots Academy ★</text>
<text x="675.0" y="431.0" font-size="10" text-anchor="middle" fill="#555">(-10.5, -36)  6×5</text>
<rect x="1125.0" y="640.0" width="60.0" height="60.0" fill="#f3e4c4" stroke="#06d6a0" stroke-width="4"/>
<rect x="1149.5" y="697.0" width="11.0" height="6" fill="#5c3a1e"/>
<text x="1155.0" y="666.0" font-size="12" font-weight="700" text-anchor="middle" fill="#2b2d42">Prediction Colosseum ★</text>
<text x="1155.0" y="681.0" font-size="10" text-anchor="middle" fill="#555">(37.5, -11)  6×6</text>
<rect x="970.0" y="870.0" width="60.0" height="60.0" fill="#f3e4c4" stroke="#06d6a0" stroke-width="4"/>
<rect x="994.5" y="927.0" width="11.0" height="6" fill="#5c3a1e"/>
<text x="1000.0" y="896.0" font-size="12" font-weight="700" text-anchor="middle" fill="#2b2d42">Cloud Citadel ★</text>
<text x="1000.0" y="911.0" font-size="10" text-anchor="middle" fill="#555">(22, 12)  6×6</text>
<rect x="867.5" y="417.5" width="45.0" height="45.0" fill="#f3e4c4" stroke="#e08a2e" stroke-width="4"/>
<rect x="884.5" y="459.5" width="11.0" height="6" fill="#5c3a1e"/>
<text x="890.0" y="436.0" font-size="12" font-weight="700" text-anchor="middle" fill="#2b2d42">Vortex Observatory ★</text>
<text x="890.0" y="451.0" font-size="10" text-anchor="middle" fill="#555">(11, -34)  4.5×4.5</text>
<rect x="557.5" y="870.0" width="45.0" height="40.0" fill="#f3e4c4" stroke="#b07cf0" stroke-width="4"/>
<rect x="574.5" y="907.0" width="11.0" height="6" fill="#5c3a1e"/>
<text x="580.0" y="886.0" font-size="12" font-weight="700" text-anchor="middle" fill="#2b2d42">Concierge Parlour ★</text>
<text x="580.0" y="901.0" font-size="10" text-anchor="middle" fill="#555">(-20, 11)  4.5×4</text>
<rect x="390.0" y="640.0" width="60.0" height="60.0" fill="#f3e4c4" stroke="#b07cf0" stroke-width="4"/>
<rect x="414.5" y="697.0" width="11.0" height="6" fill="#5c3a1e"/>
<text x="420.0" y="666.0" font-size="12" font-weight="700" text-anchor="middle" fill="#2b2d42">The Volley Court ★</text>
<text x="420.0" y="681.0" font-size="10" text-anchor="middle" fill="#555">(-36, -11)  6×6</text>
<rect x="362.5" y="882.5" width="35.0" height="35.0" fill="#f3e4c4" stroke="#b07cf0" stroke-width="4"/>
<rect x="374.5" y="914.5" width="11.0" height="6" fill="#5c3a1e"/>
<text x="380.0" y="896.0" font-size="12" font-weight="700" text-anchor="middle" fill="#2b2d42">Navigator's Tower ★</text>
<text x="380.0" y="911.0" font-size="10" text-anchor="middle" fill="#555">(-40, 12)  3.5×3.5</text>
<rect x="750" y="170" width="60" height="60" fill="#b9a98e" stroke="#4a4034" stroke-width="3"/>
<text x="780" y="204" font-size="11" font-weight="700" text-anchor="middle">Clock Tower</text>
<g transform="translate(685.0,990.0) rotate(-90)"><rect x="-16.0" y="-8.0" width="32.0" height="16.0" fill="#e86f2b" stroke="#7a3a10" stroke-width="1.5"/></g>
<text x="685.0" y="994.0" font-size="9" text-anchor="middle">stall</text>
<g transform="translate(875.0,995.0) rotate(90)"><rect x="-16.0" y="-8.0" width="32.0" height="16.0" fill="#e86f2b" stroke="#7a3a10" stroke-width="1.5"/></g>
<text x="875.0" y="999.0" font-size="9" text-anchor="middle">stall</text>
<g transform="translate(875.0,1090.0) rotate(90)"><rect x="-16.0" y="-8.0" width="32.0" height="16.0" fill="#e86f2b" stroke="#7a3a10" stroke-width="1.5"/></g>
<text x="875.0" y="1094.0" font-size="9" text-anchor="middle">stall</text>
<circle cx="700.0" cy="1135.0" r="8.0" fill="#6b4226" stroke="#3a2416" stroke-width="1"/>
<circle cx="650.0" cy="1135.0" r="8.0" fill="#6b4226" stroke="#3a2416" stroke-width="1"/>
<circle cx="615.0" cy="1165.0" r="8.0" fill="#6b4226" stroke="#3a2416" stroke-width="1"/>
<circle cx="655.0" cy="1180.0" r="9.0" fill="#ff6b35" stroke="#8a2a00" stroke-width="2"/>
<text x="655.0" y="1195.0" font-size="9" text-anchor="middle">campfire</text>
<circle cx="602.0" cy="1075.0" r="4.0" fill="#5a4033"/>
<circle cx="602.0" cy="1086.0" r="4.0" fill="#5a4033"/>
<circle cx="611.0" cy="1081.0" r="4.0" fill="#5a4033"/>
<rect x="628.0" y="878.0" width="24.0" height="24.0" fill="none" stroke="#5c3d2e" stroke-width="2"/>
<rect x="908.0" y="878.0" width="24.0" height="24.0" fill="none" stroke="#5c3d2e" stroke-width="2"/>
<rect x="908.0" y="1038.0" width="24.0" height="24.0" fill="none" stroke="#5c3d2e" stroke-width="2"/>
<rect x="673.0" y="1193.0" width="24.0" height="24.0" fill="none" stroke="#5c3d2e" stroke-width="2"/>
<circle cx="885.0" cy="885.0" r="4" fill="#ffd166" stroke="#7a5a10" stroke-width="1.5"/>
<circle cx="680" cy="870" r="4" fill="#ffd166" stroke="#7a5a10" stroke-width="1.5"/>
<circle cx="885.0" cy="675.0" r="4" fill="#ffd166" stroke="#7a5a10" stroke-width="1.5"/>
<circle cx="675.0" cy="675.0" r="4" fill="#ffd166" stroke="#7a5a10" stroke-width="1.5"/>
<circle cx="715.0" cy="1010" r="4" fill="#ffd166" stroke="#7a5a10" stroke-width="1.5"/>
<circle cx="855.0" cy="990" r="4" fill="#ffd166" stroke="#7a5a10" stroke-width="1.5"/>
<circle cx="600" cy="1130" r="4" fill="#ffd166" stroke="#7a5a10" stroke-width="1.5"/>
<circle cx="705.0" cy="1160" r="4" fill="#ffd166" stroke="#7a5a10" stroke-width="1.5"/>
<circle cx="855.0" cy="1080" r="4" fill="#ffd166" stroke="#7a5a10" stroke-width="1.5"/>
<circle cx="705.0" cy="690" r="4" fill="#ffd166" stroke="#7a5a10" stroke-width="1.5"/>
<circle cx="855.0" cy="630" r="4" fill="#ffd166" stroke="#7a5a10" stroke-width="1.5"/>
<circle cx="705.0" cy="500" r="4" fill="#ffd166" stroke="#7a5a10" stroke-width="1.5"/>
<circle cx="855.0" cy="400" r="4" fill="#ffd166" stroke="#7a5a10" stroke-width="1.5"/>
<circle cx="920" cy="705.0" r="4" fill="#ffd166" stroke="#7a5a10" stroke-width="1.5"/>
<circle cx="920" cy="855.0" r="4" fill="#ffd166" stroke="#7a5a10" stroke-width="1.5"/>
<circle cx="1060" cy="705.0" r="4" fill="#ffd166" stroke="#7a5a10" stroke-width="1.5"/>
<circle cx="1060" cy="855.0" r="4" fill="#ffd166" stroke="#7a5a10" stroke-width="1.5"/>
<circle cx="1200" cy="705.0" r="4" fill="#ffd166" stroke="#7a5a10" stroke-width="1.5"/>
<circle cx="640" cy="705.0" r="4" fill="#ffd166" stroke="#7a5a10" stroke-width="1.5"/>
<circle cx="630" cy="845.0" r="4" fill="#ffd166" stroke="#7a5a10" stroke-width="1.5"/>
<circle cx="500" cy="705.0" r="4" fill="#ffd166" stroke="#7a5a10" stroke-width="1.5"/>
<circle cx="515.0" cy="845.0" r="4" fill="#ffd166" stroke="#7a5a10" stroke-width="1.5"/>
<circle cx="360" cy="855.0" r="4" fill="#ffd166" stroke="#7a5a10" stroke-width="1.5"/>
<circle cx="780.0" cy="1340.0" r="4" fill="#ffd166" stroke="#7a5a10" stroke-width="1.5"/>
<circle cx="1264.9742261192855" cy="1060.0" r="4" fill="#ffd166" stroke="#7a5a10" stroke-width="1.5"/>
<circle cx="1264.9742261192857" cy="500.0000000000001" r="4" fill="#ffd166" stroke="#7a5a10" stroke-width="1.5"/>
<circle cx="780.0" cy="220.0" r="4" fill="#ffd166" stroke="#7a5a10" stroke-width="1.5"/>
<circle cx="295.0257738807145" cy="499.9999999999997" r="4" fill="#ffd166" stroke="#7a5a10" stroke-width="1.5"/>
<circle cx="295.0257738807144" cy="1060.0" r="4" fill="#ffd166" stroke="#7a5a10" stroke-width="1.5"/>
<rect x="853.0" y="635" width="10" height="10" fill="#3a2210" transform="rotate(45 858.0 640)"/>
<rect x="915" y="853.0" width="10" height="10" fill="#3a2210" transform="rotate(45 920 858.0)"/>
<rect x="635" y="697.0" width="10" height="10" fill="#3a2210" transform="rotate(45 640 702.0)"/>
<rect x="697.0" y="885" width="10" height="10" fill="#3a2210" transform="rotate(45 702.0 890)"/>
<rect x="853.0" y="355" width="10" height="10" fill="#3a2210" transform="rotate(45 858.0 360)"/>
<rect x="1195" y="697.0" width="10" height="10" fill="#3a2210" transform="rotate(45 1200 702.0)"/>
<rect x="355" y="853.0" width="10" height="10" fill="#3a2210" transform="rotate(45 360 858.0)"/>
<circle cx="685.0" cy="965.0" r="4.5" fill="#2a1a10" stroke="#ffbe6e" stroke-width="1.5"/>
<circle cx="865.0" cy="1025.0" r="4.5" fill="#2a1a10" stroke="#ffbe6e" stroke-width="1.5"/>
<circle cx="675.0" cy="1150.0" r="4.5" fill="#2a1a10" stroke="#ffbe6e" stroke-width="1.5"/>
<circle cx="700.0" cy="965.0" r="4.5" fill="#2a1a10" stroke="#ffbe6e" stroke-width="1.5"/>
<circle cx="700.0" cy="675.0" r="4.5" fill="#2a1a10" stroke="#ffbe6e" stroke-width="1.5"/>
<circle cx="865.0" cy="612.0" r="4.5" fill="#2a1a10" stroke="#ffbe6e" stroke-width="1.5"/>
<circle cx="705.0" cy="455.0" r="4.5" fill="#2a1a10" stroke="#ffbe6e" stroke-width="1.5"/>
<circle cx="975.0" cy="942.0" r="4.5" fill="#2a1a10" stroke="#ffbe6e" stroke-width="1.5"/>
<circle cx="615.0" cy="920.0" r="4.5" fill="#2a1a10" stroke="#ffbe6e" stroke-width="1.5"/>
<circle cx="860.0" cy="1110.0" r="4.5" fill="#2a1a10" stroke="#ffbe6e" stroke-width="1.5"/>
<circle cx="780" cy="1080" r="7" fill="none" stroke="#e63946" stroke-width="2.5" stroke-dasharray="3 2"/>
<text x="790" y="1084" font-size="10" fill="#e63946" font-weight="700">spawn: square</text>
<circle cx="780" cy="660" r="7" fill="none" stroke="#e63946" stroke-width="2.5" stroke-dasharray="3 2"/>
<text x="790" y="664" font-size="10" fill="#e63946" font-weight="700">spawn: north</text>
<circle cx="920" cy="780" r="7" fill="none" stroke="#e63946" stroke-width="2.5" stroke-dasharray="3 2"/>
<text x="930" y="784" font-size="10" fill="#e63946" font-weight="700">spawn: east</text>
<circle cx="640" cy="780" r="7" fill="none" stroke="#e63946" stroke-width="2.5" stroke-dasharray="3 2"/>
<text x="650" y="784" font-size="10" fill="#e63946" font-weight="700">spawn: west</text>
<polygon points="780,1071 774,1087 786,1087" fill="#c0392b" stroke="#fff" stroke-width="1.5"/>
<text x="790" y="1096" font-size="10" fill="#c0392b" font-weight="700">cart start (0, 30) facing north</text>
<text x="780" y="1220" font-size="15" font-weight="900" text-anchor="middle" fill="#2b2d42" letter-spacing="2">TOWN SQUARE</text>
<text x="780" y="340" font-size="15" font-weight="900" text-anchor="middle" fill="#2b2d42" letter-spacing="2">MAIN STREET (north)</text>
<text x="1120" y="560" font-size="15" font-weight="900" text-anchor="middle" fill="#2b2d42" letter-spacing="2">RESEARCH QUARTER (east)</text>
<text x="440" y="1000" font-size="15" font-weight="900" text-anchor="middle" fill="#2b2d42" letter-spacing="2">SERVICES QUARTER (west)</text>
<circle cx="1440" cy="120" r="34" fill="#fff" fill-opacity="0.85" stroke="#555"/>
<polygon points="1440,92 1432,120 1448,120" fill="#e63946"/>
<text x="1440" y="88" font-size="12" font-weight="700" text-anchor="middle">N (−z)</text>
<text x="1440" y="166" font-size="12" text-anchor="middle">S (+z)</text>
<text x="1484" y="124" font-size="12">E (+x)</text><text x="1396" y="124" font-size="12" text-anchor="end">W (−x)</text>
<rect x="62" y="1228" width="330" height="262" rx="8" fill="#fff" fill-opacity="0.92" stroke="#555"/>
<text x="70" y="1246" font-size="14" font-weight="900">LEGEND  (1 grid square = 10 world units)</text>
<g transform="translate(70,1264)"><rect x="0" y="-8" width="18" height="12" fill="#f3e4c4" stroke="#e08a2e" stroke-width="3"/></g><text x="96" y="1266" font-size="12">Building footprint (border = zone colour); ★ = has a project modal</text>
<g transform="translate(70,1282)"><rect x="6" y="-4" width="8" height="5" fill="#5c3a1e"/></g><text x="96" y="1284" font-size="12">Door — the building's front is always its +z (south) side</text>
<g transform="translate(70,1300)"><circle cx="9" cy="-2" r="7" fill="#c8c24a" stroke="#2f5a25"/></g><text x="96" y="1302" font-size="12">Tree crown: oak (yellow), birch (orange), cherry (pink), green</text>
<g transform="translate(70,1318)"><circle cx="9" cy="-2" r="4" fill="#4f9b3c" stroke="#2f5a25"/></g><text x="96" y="1320" font-size="12">Bush</text>
<g transform="translate(70,1336)"><text x="2" y="4" font-size="14" stroke="none">✿</text></g><text x="96" y="1338" font-size="12">Wild flower cluster</text>
<g transform="translate(70,1354)"><circle cx="9" cy="-2" r="4" fill="#ffd166" stroke="#7a5a10"/></g><text x="96" y="1356" font-size="12">Lamp post</text>
<g transform="translate(70,1372)"><rect x="4" y="-7" width="10" height="10" fill="#3a2210" transform="rotate(45 9 -2)"/></g><text x="96" y="1374" font-size="12">Signboard</text>
<g transform="translate(70,1390)"><circle cx="9" cy="-2" r="4.5" fill="#2a1a10" stroke="#ffbe6e"/></g><text x="96" y="1392" font-size="12">NPC sprite</text>
<g transform="translate(70,1408)"><rect x="0" y="-7" width="18" height="10" fill="#e86f2b"/></g><text x="96" y="1410" font-size="12">Market stall (awning)</text>
<g transform="translate(70,1426)"><circle cx="9" cy="-2" r="5" fill="#6b4226"/></g><text x="96" y="1428" font-size="12">Tavern table  ·  orange ring = campfire</text>
<g transform="translate(70,1444)"><circle cx="9" cy="-2" r="7" fill="none" stroke="#e63946" stroke-width="2.5" stroke-dasharray="3 2"/></g><text x="96" y="1446" font-size="12">Fast-travel spawn point</text>
<g transform="translate(70,1462)"><rect x="0" y="-8" width="18" height="12" fill="#c9b48e"/></g><text x="96" y="1464" font-size="12">Road (spokes 12 wide, ring 9) · plaza / roundabout darker</text>
<g transform="translate(70,1480)"><circle cx="9" cy="-2" r="7" fill="none" stroke="#8c7b62" stroke-width="4"/></g><text x="96" y="1482" font-size="12">City wall r=63 with towers; gates E / W / S (closed)</text>
<text x="780.0" y="1546" font-size="12" text-anchor="middle" fill="#555">Generated from town-world.js placement data · roads: |x|≤6 or |z|≤6 spokes, ring r 45.5–54.5, roundabout r≤13, plaza x −17…13 / z 17…37</text>
</svg>